<?xml version="1.0" encoding="UTF-8"?>
<svg width="20px" height="20px" viewBox="0 0 20 20" version="1.1" xmlns="http://www.w3.org/2000/svg" xmlns:xlink="http://www.w3.org/1999/xlink">
    <title>icon-dashboard</title>
    <defs>
        <path d="M11.953125,0 L8.046875,0 C7.72328125,0 7.4609375,0.312313988 7.4609375,0.697544643 L7.4609375,19.2987351 C7.4609375,19.6839658 7.72328125,19.9962798 8.046875,19.9962798 L11.953125,19.9962798 C12.2767188,19.9962798 12.5390625,19.6839658 12.5390625,19.2987351 L12.5390625,0.697544643 C12.5390625,0.312313988 12.2767188,0 11.953125,0 Z M11.3671875,18.6011905 L8.6328125,18.6011905 L8.6328125,11.625744 L11.3671875,11.625744 L11.3671875,18.6011905 Z M4.4921875,8.37053571 C4.81578125,8.37053571 5.078125,8.6828497 5.078125,9.06808036 L5.078125,9.06808036 L5.078125,19.2987351 C5.078125,19.6839658 4.81578125,19.9962798 4.4921875,19.9962798 L4.4921875,19.9962798 L0.5859375,19.9962798 C0.26234375,19.9962798 0,19.6839658 0,19.2987351 L0,19.2987351 L0,9.06808036 C0,8.6828497 0.26234375,8.37053571 0.5859375,8.37053571 L0.5859375,8.37053571 Z M19.4140625,8.37053571 C19.7376563,8.37053571 20,8.6828497 20,9.06808036 L20,9.06808036 L20,19.2987351 C20,19.6839658 19.7376563,19.9962798 19.4140625,19.9962798 L19.4140625,19.9962798 L15.5078125,19.9962798 C15.1842187,19.9962798 14.921875,19.6839658 14.921875,19.2987351 L14.921875,19.2987351 L14.921875,9.06808036 C14.921875,8.6828497 15.1842187,8.37053571 15.5078125,8.37053571 L15.5078125,8.37053571 Z M3.90625,16.2760417 L1.171875,16.2760417 L1.171875,18.6011905 L3.90625,18.6011905 L3.90625,16.2760417 Z M18.828125,16.2760417 L16.09375,16.2760417 L16.09375,18.6011905 L18.828125,18.6011905 L18.828125,16.2760417 Z M3.90625,9.765625 L1.171875,9.765625 L1.171875,14.8809524 L3.90625,14.8809524 L3.90625,9.765625 Z M18.828125,9.765625 L16.09375,9.765625 L16.09375,14.8809524 L18.828125,14.8809524 L18.828125,9.765625 Z M11.3671875,1.39508929 L11.3671875,10.2306548 L8.6328125,10.2306548 L8.6328125,1.39508929 L11.3671875,1.39508929 Z" id="path-1"></path>
    </defs>
    <g id="Desktop" stroke="none" stroke-width="1" fill="none" fill-rule="evenodd">
        <g id="0-–-Navigation" transform="translate(-210.000000, -250.000000)">
            <g id="Component/Navigation/Left-Bar-Expanded" transform="translate(180.000000, 0.000000)">
                <g id="Group" transform="translate(0.000000, 176.000000)">
                    <g id="Nav/Menu/List--Copy" transform="translate(0.000000, 56.000000)">
                        <g id="icon-dashboard" transform="translate(30.000000, 18.000000)">
                            <mask id="mask-2" fill="white">
                                <use xlink:href="#path-1"></use>
                            </mask>
                            <use id="Combined-Shape" fill="#BFC5D2" xlink:href="#path-1"></use>
                        </g>
                    </g>
                </g>
            </g>
        </g>
    </g>
</svg>