<?xml version="1.0" encoding="UTF-8"?>
<svg width="20px" height="16px" viewBox="0 0 20 16" version="1.1" xmlns="http://www.w3.org/2000/svg" xmlns:xlink="http://www.w3.org/1999/xlink">
    <title>icon-dashboard</title>
    <defs>
        <path d="M1.52380989,14.5269898 L1.52380989,2.13249473 L10.0035183,8.97694486 L18.4761919,2.13249473 L18.4761919,14.5269898 L1.52380989,14.5269898 Z M17.1428571,1.48995277 L10.0476124,7.07725436 L2.85714286,1.48995277 L17.1428571,1.48995277 Z M18.1818182,0 L1.81818182,0 C0.815454545,0 0,0.797333333 0,1.77777778 L0,14.2222222 C0,15.2026667 0.815454545,16 1.81818182,16 L18.1818182,16 C19.1845455,16 20,15.2026667 20,14.2222222 L20,1.77777778 C20,0.797333333 19.1845455,0 18.1818182,0 L18.1818182,0 Z" id="path-1"></path>
    </defs>
    <g id="Desktop" stroke="none" stroke-width="1" fill="none" fill-rule="evenodd">
        <g id="0-–-Navigation" transform="translate(-210.000000, -476.000000)">
            <g id="Component/Navigation/Left-Bar-Expanded" transform="translate(180.000000, 0.000000)">
                <g id="Group" transform="translate(0.000000, 176.000000)">
                    <g id="Nav/Menu/List--Copy-5" transform="translate(0.000000, 280.000000)">
                        <g id="icon-dashboard" transform="translate(30.000000, 20.000000)">
                            <mask id="mask-2" fill="white">
                                <use xlink:href="#path-1"></use>
                            </mask>
                            <use id="Mail" fill="#BFC5D2" xlink:href="#path-1"></use>
                        </g>
                    </g>
                </g>
            </g>
        </g>
    </g>
</svg>