<?xml version="1.0" encoding="UTF-8"?>
<svg width="20px" height="20px" viewBox="0 0 20 20" version="1.1" xmlns="http://www.w3.org/2000/svg" xmlns:xlink="http://www.w3.org/1999/xlink">
    <title>Shape</title>
    <defs>
        <path d="M19.4836489,1.90889739 L13.2874355,0.0308686421 C13.2702238,0.0308686421 13.253012,0.0308686421 13.253012,0.0308686421 C13.2185886,0.0308686421 13.2013769,0.0136390206 13.1669535,0.0136390206 C13.1325301,0.0136390206 13.1153184,0.0136390206 13.080895,0.0136390206 C13.0464716,0.0136390206 13.0292599,0.0136390206 12.9948365,0.0136390206 C12.9604131,0.0136390206 12.9432014,0.0136390206 12.908778,0.0308686421 C12.8915663,0.0308686421 12.8743546,0.0308686421 12.8743546,0.0308686421 L6.90189329,1.85720852 L0.91222031,0.0308686421 C0.705679862,-0.038049844 0.464716007,0.0136390206 0.292598967,0.134246371 C0.120481928,0.272083344 0,0.478838802 0,0.702823882 L0,17.4155568 C0,17.72569 0.206540448,18.0013639 0.499139415,18.087512 L6.69535284,19.9655408 C6.76419966,19.9827704 6.83304647,20 6.90189329,20 C6.9707401,20 7.03958692,19.9827704 7.10843373,19.9655408 L13.0981067,18.1564305 L19.0877797,19.9655408 C19.1566265,19.9827704 19.2254733,20 19.2943201,20 C19.4492255,20 19.5869191,19.9483111 19.707401,19.862163 C19.8795181,19.7243261 20,19.5175706 20,19.2935855 L20,2.58085263 C20,2.27071944 19.7934596,2.01227512 19.4836489,1.90889739 Z M6.19621343,18.363186 L1.41135972,16.9158977 L1.41135972,1.65045307 L6.19621343,3.09774128 L6.19621343,18.363186 Z M12.3924269,16.8986681 L7.60757315,18.363186 L7.60757315,3.1149709 L12.3924269,1.65045307 L12.3924269,16.8986681 Z M18.5886403,18.363186 L13.8037866,16.9158977 L13.8037866,1.65045307 L18.5886403,3.09774128 L18.5886403,18.363186 Z" id="path-1"></path>
    </defs>
    <g id="Desktop" stroke="none" stroke-width="1" fill="none" fill-rule="evenodd">
        <g id="0-–-Navigation" transform="translate(-210.000000, -418.000000)">
            <g id="Component/Navigation/Left-Bar-Expanded" transform="translate(180.000000, 0.000000)">
                <g id="Group" transform="translate(0.000000, 176.000000)">
                    <g id="Nav/Menu/List--Copy-4" transform="translate(0.000000, 224.000000)">
                        <g id="icon-dashboard" transform="translate(30.000000, 18.000000)">
                            <mask id="mask-2" fill="white">
                                <use xlink:href="#path-1"></use>
                            </mask>
                            <use id="Shape" fill="#BFC5D2" xlink:href="#path-1"></use>
                        </g>
                    </g>
                </g>
            </g>
        </g>
    </g>
</svg>