<?xml version="1.0" encoding="UTF-8"?>
<svg width="20px" height="20px" viewBox="0 0 20 20" version="1.1" xmlns="http://www.w3.org/2000/svg" xmlns:xlink="http://www.w3.org/1999/xlink">
    <title>icon-dashboard</title>
    <defs>
        <path d="M7.59999961,11 C8.04182741,11 8.39999962,11.3581722 8.39999962,11.8 L8.39999962,18.5999996 C8.39999962,19.0418274 8.04182741,19.3999996 7.59999961,19.3999996 L0.800000012,19.3999996 C0.358172205,19.3999996 5.41083009e-17,19.0418274 0,18.5999996 L0,11.8 C-5.41083009e-17,11.3581722 0.358172205,11 0.800000012,11 L7.59999961,11 Z M18.5999996,11 C19.0418274,11 19.3999996,11.3581722 19.3999996,11.8 L19.3999996,18.5999996 C19.3999996,19.0418274 19.0418274,19.3999996 18.5999996,19.3999996 L11.8,19.3999996 C11.3581722,19.3999996 11,19.0418274 11,18.5999996 L11,11.8 C11,11.3581722 11.3581722,11 11.8,11 L18.5999996,11 Z M17.9500008,12.4499969 L12.4500008,12.4499969 L12.4500008,17.9499969 L17.9500008,17.9499969 L17.9500008,12.4499969 Z M6.95000076,12.4499969 L1.45000076,12.4499969 L1.45000076,17.9499969 L6.95000076,17.9499969 L6.95000076,12.4499969 Z M7.59999961,0 C8.04182741,-8.11624513e-17 8.39999962,0.358172205 8.39999962,0.800000012 L8.39999962,7.59999961 C8.39999962,8.04182741 8.04182741,8.39999962 7.59999961,8.39999962 L0.800000012,8.39999962 C0.358172205,8.39999962 5.41083009e-17,8.04182741 0,7.59999961 L0,0.800000012 C-5.41083009e-17,0.358172205 0.358172205,8.11624513e-17 0.800000012,0 L7.59999961,0 Z M18.5999996,0 C19.0418274,-8.11624513e-17 19.3999996,0.358172205 19.3999996,0.800000012 L19.3999996,7.59999961 C19.3999996,8.04182741 19.0418274,8.39999962 18.5999996,8.39999962 L11.8,8.39999962 C11.3581722,8.39999962 11,8.04182741 11,7.59999961 L11,0.800000012 C11,0.358172205 11.3581722,8.11624513e-17 11.8,0 L18.5999996,0 Z M17.9500008,1.44999695 L12.4500008,1.44999695 L12.4500008,6.94999695 L17.9500008,6.94999695 L17.9500008,1.44999695 Z M6.95000076,1.44999695 L1.45000076,1.44999695 L1.45000076,6.94999695 L6.95000076,6.94999695 L6.95000076,1.44999695 Z" id="path-1"></path>
    </defs>
    <g id="Desktop" stroke="none" stroke-width="1" fill="none" fill-rule="evenodd">
        <g id="0-–-Navigation" transform="translate(-210.000000, -194.000000)">
            <g id="Component/Navigation/Left-Bar-Expanded" transform="translate(180.000000, 0.000000)">
                <g id="Group" transform="translate(0.000000, 176.000000)">
                    <g id="icon-dashboard" transform="translate(30.299999, 18.300003)">
                        <mask id="mask-2" fill="white">
                            <use xlink:href="#path-1"></use>
                        </mask>
                        <use id="Combined-Shape" fill="#BFC5D2" xlink:href="#path-1"></use>
                    </g>
                </g>
            </g>
        </g>
    </g>
</svg>