<?xml version="1.0" encoding="UTF-8"?>
<svg width="20px" height="20px" viewBox="0 0 20 20" version="1.1" xmlns="http://www.w3.org/2000/svg" xmlns:xlink="http://www.w3.org/1999/xlink">
    <title>Shape</title>
    <defs>
        <path d="M19.5380711,8.52625635 L18.4568528,8.4133258 C18.3299492,7.92772445 18.1573604,7.4647092 17.928934,7.02428007 L18.6142132,6.1038961 C18.7817259,5.87803501 18.7664975,5.55618295 18.5837563,5.34726143 L17.2335025,3.82834557 C17.0507614,3.61942405 16.751269,3.60248447 16.5482234,3.78881988 L15.7208122,4.55110107 C15.3299492,4.30265387 14.9086294,4.10502541 14.4771574,3.96386222 L14.3756345,2.76679842 C14.3502538,2.47882552 14.1319797,2.25861095 13.8680203,2.25861095 L12.1827411,2.25861095 L12.1827411,0.564652739 C12.1827411,0.254093732 11.9543147,0 11.6751269,0 C11.3959391,0 11.1675127,0.254093732 11.1675127,0.564652739 L11.1675127,3.38791643 L9.24873096,3.38791643 C8.43147208,3.38791643 7.65482234,3.81705251 7.15736041,4.53980802 L5.06598985,7.60587239 L1.54822335,8.67306606 C0.634517766,8.94974591 0.00507614213,9.87012987 0,10.9260305 L0,12.4223602 C0.00507614213,13.7097685 0.949238579,14.7487295 2.10659898,14.7487295 L2.38071066,14.7487295 C2.76142132,16.3241107 4.21827411,17.2501412 5.63451777,16.8266516 C6.54314721,16.5499718 7.25888325,15.7594579 7.50253807,14.7487295 L11.1675127,14.7487295 L11.1675127,19.4353473 C11.1675127,19.7459063 11.3959391,20 11.6751269,20 C11.9543147,20 12.1827411,19.7459063 12.1827411,19.4353473 L12.1827411,18.0801807 L13.8680203,18.0801807 C14.1319797,18.0801807 14.3502538,17.8599661 14.3756345,17.5663467 L14.4771574,16.3636364 C14.9137056,16.2224732 15.3299492,16.0304912 15.7258883,15.782044 L16.5532995,16.5443252 C16.7563452,16.7306606 17.0507614,16.7137211 17.2335025,16.5104461 L18.5989848,14.9915302 C18.7817259,14.7882552 18.7969543,14.4551101 18.6294416,14.229249 L17.9441624,13.308865 C18.1675127,12.8684359 18.3451777,12.4054207 18.4720812,11.9254658 L19.5380711,11.8125353 C19.7969543,11.7843027 20,11.541502 20,11.2478826 L20,9.08526256 C20,8.79728967 19.7969543,8.55448899 19.5380711,8.52625635 Z M4.93908629,15.8046302 C4.03553299,15.8046302 3.29949239,14.9858837 3.29949239,13.9808018 C3.29949239,12.9757199 4.03553299,12.1569735 4.93908629,12.1569735 C5.84263959,12.1569735 6.5786802,12.9757199 6.5786802,13.9808018 C6.5786802,14.9858837 5.84771574,15.8046302 4.93908629,15.8046302 Z M11.1675127,13.6138217 L7.57360406,13.6138217 C7.39593909,11.9932242 6.07106599,10.8469791 4.61928934,11.038961 C3.41116751,11.2027103 2.45685279,12.2642575 2.30456853,13.6138217 L2.10152284,13.6138217 C1.50253807,13.6194241 1.01522843,13.083004 1.01015228,12.4167137 L1.01015228,10.9260305 C1.01522843,10.3839639 1.34010152,9.90965556 1.81218274,9.76284585 L5.49746193,8.64483343 C5.60406091,8.61095426 5.70050761,8.54319593 5.76649746,8.44155844 L7.96954315,5.22868436 C8.27411168,4.7826087 8.75126904,4.52286844 9.25380711,4.52286844 L11.1675127,4.52286844 L11.1675127,13.6138217 Z M12.1827411,7.76962168 C13.3705584,7.32919255 14.6548223,8.04630152 15.0507614,9.37323546 C15.4467005,10.7001694 14.8020305,12.1230943 13.6091371,12.5635234 C13.1472081,12.7329193 12.6446701,12.7329193 12.1827411,12.5635234 L12.1827411,7.76962168 L12.1827411,7.76962168 Z M18.9847716,10.728402 L18.9847716,10.728402 L18.0203046,10.8300395 C17.8020305,10.8526256 17.6192893,11.0333145 17.5736041,11.2704687 C17.4467005,11.9028797 17.2182741,12.5014116 16.8984772,13.0434783 C16.7766497,13.2523998 16.7918782,13.5177866 16.9340102,13.7097685 L17.5532995,14.5454545 L16.8426396,15.3359684 L16.0913706,14.6527386 C15.9187817,14.4946358 15.6751269,14.4776962 15.4873096,14.6188594 C15.0050761,14.9745906 14.4670051,15.2286844 13.8984772,15.364201 C13.680203,15.4150198 13.5228426,15.6182947 13.5025381,15.8610954 L13.4111675,16.9452287 L12.1827411,16.9452287 L12.1827411,13.7323546 C13.9543147,14.1727837 15.7106599,12.9305477 16.1015228,10.9599097 C16.4974619,8.9892716 15.3807107,7.03557312 13.6091371,6.59514399 C13.1370558,6.47656691 12.6497462,6.47656691 12.1827411,6.59514399 L12.1827411,3.39356296 L13.4060914,3.39356296 L13.5025381,4.47204969 C13.5228426,4.71485037 13.6852792,4.91812535 13.8984772,4.9689441 C14.4670051,5.11010728 15.0050761,5.36420102 15.4923858,5.71428571 C15.680203,5.84980237 15.9187817,5.83286279 16.0913706,5.67476002 L16.8375635,4.98588368 L17.5380711,5.77075099 L16.9137056,6.61208357 C16.7715736,6.8040655 16.7563452,7.07509881 16.8832487,7.28402033 C17.2030457,7.82044043 17.4314721,8.41897233 17.5532995,9.0513834 C17.6040609,9.29418408 17.7817259,9.46922643 18.0050761,9.49181254 L18.9847716,9.59909656 L18.9847716,10.728402 L18.9847716,10.728402 Z" id="path-1"></path>
    </defs>
    <g id="Desktop" stroke="none" stroke-width="1" fill="none" fill-rule="evenodd">
        <g id="0-–-Navigation" transform="translate(-210.000000, -362.000000)">
            <g id="Component/Navigation/Left-Bar-Expanded" transform="translate(180.000000, 0.000000)">
                <g id="Group" transform="translate(0.000000, 176.000000)">
                    <g id="Nav/Menu/List--Copy-3" transform="translate(0.000000, 168.000000)">
                        <g id="icon-dashboard" transform="translate(30.000000, 18.000000)">
                            <mask id="mask-2" fill="white">
                                <use xlink:href="#path-1"></use>
                            </mask>
                            <use id="Shape" fill="#BFC5D2" xlink:href="#path-1"></use>
                        </g>
                    </g>
                </g>
            </g>
        </g>
    </g>
</svg>