<?xml version="1.0" encoding="UTF-8"?>
<svg width="20px" height="20px" viewBox="0 0 20 20" version="1.1" xmlns="http://www.w3.org/2000/svg" xmlns:xlink="http://www.w3.org/1999/xlink">
    <title>Settings</title>
    <defs>
        <path d="M18.976282,7.90051722 L17.5724883,7.66237366 C17.4262598,7.19026449 17.2382518,6.73486714 17.0084641,6.30035958 L17.8356996,5.14306542 C18.1866481,4.65006646 18.1323346,3.97741533 17.702005,3.55126369 L16.4569737,2.30623242 C16.2230081,2.07226681 15.9138393,1.94275014 15.5837807,1.94275014 C15.3247473,1.94275014 15.0782478,2.02213133 14.86935,2.17253779 L13.7078778,2.99977333 C13.2566585,2.76162976 12.7845493,2.56526577 12.2957283,2.41903727 L12.0617627,1.03195545 C11.9614917,0.434507558 11.447603,0 10.8417992,0 L9.08287914,0 C8.47707533,0 7.96318658,0.434507558 7.86291561,1.03195545 L7.62059409,2.45246093 C7.15266287,2.59868943 6.69726553,2.79087547 6.26275797,3.02484107 L5.11381972,2.19760553 C4.90492185,2.04719907 4.65424441,1.96781788 4.39521106,1.96781788 C4.06515244,1.96781788 3.75180564,2.09733456 3.52201799,2.33130016 L2.27280876,3.57633144 C1.84665712,4.00248308 1.78816572,4.6751342 2.13911413,5.16813316 L2.97470559,6.34213916 C2.74491794,6.78082467 2.56108782,7.23622202 2.41903727,7.70833119 L1.03195545,7.9422968 C0.434507558,8.04256777 0,8.55645652 0,9.16226032 L0,10.9211803 C0,11.5269841 0.434507558,12.0408729 1.03195545,12.1411439 L2.45246093,12.3834654 C2.59868943,12.8513966 2.79087547,13.306794 3.02484107,13.7413015 L2.20178349,14.8860618 C1.85083508,15.3790608 1.90514852,16.0517119 2.33547812,16.4778635 L3.58050939,17.7228948 C3.814475,17.9568604 4.12364384,18.0863771 4.45370247,18.0863771 C4.71273582,18.0863771 4.9592353,18.0069959 5.16813316,17.8565894 L6.34213916,17.020998 C6.76411284,17.2424297 7.20697632,17.4220819 7.66237366,17.5641324 L7.89633927,18.9679261 C7.99661024,19.565374 8.51049899,19.9998815 9.11630279,19.9998815 L10.8794008,19.9998815 C11.4852046,19.9998815 11.9990933,19.565374 12.0993643,18.9679261 L12.3375079,17.5641324 C12.809617,17.4179039 13.2650144,17.2298958 13.6995219,17.0001082 L14.8568161,17.8273437 C15.065714,17.9777502 15.3163914,18.0571314 15.5754248,18.0571314 L15.5754248,18.0571314 C15.9054834,18.0571314 16.2146522,17.9276147 16.4486178,17.6936491 L17.6936491,16.4486178 C18.1198007,16.0224662 18.1782921,15.3498151 17.8273437,14.8568161 L17.0001082,13.695344 C17.2298958,13.2566585 17.4220819,12.8012611 17.5641324,12.3333299 L18.9679261,12.0993643 C19.565374,11.9990933 20,11.4852046 20,10.8794008 L20,9.12048075 C20.0082374,8.51467695 19.5737299,8.0007882 18.976282,7.90051722 Z M10.8501551,1.12387051 C10.9044685,1.12387051 10.950426,1.16147213 10.958782,1.21578557 L11.251239,2.95799376 C11.2888406,3.17942549 11.4517809,3.35907766 11.6690347,3.4133911 C12.2999062,3.57215348 12.9015321,3.81865296 13.4613784,4.14871158 C13.6535644,4.26151643 13.891708,4.25316052 14.0755381,4.12364384 L15.5169334,3.08751043 C15.5378231,3.07497656 15.5587129,3.06662065 15.5796027,3.06662065 C15.5963145,3.06662065 15.6297382,3.0707986 15.6589839,3.1000443 L16.9040152,4.34507558 C16.9416168,4.38267719 16.9457947,4.44116859 16.916549,4.48712612 L15.8845936,5.9368773 C15.7550769,6.11652946 15.746721,6.35885099 15.8595259,6.55103702 C16.1854065,7.09834943 16.427728,7.6874414 16.5864904,8.30160112 C16.6408039,8.5188549 16.820456,8.68179524 17.0377098,8.7152189 L18.7924519,9.01185386 C18.8467653,9.02020978 18.8843669,9.06616731 18.8843669,9.12048075 L18.8843669,10.8794008 L18.880189,10.8794008 C18.880189,10.9337142 18.8425874,10.9796717 18.7882739,10.9880277 L17.0335318,11.2804847 C16.8121001,11.3180863 16.6366259,11.4810266 16.5823125,11.6941024 C16.4235501,12.3082622 16.1812286,12.8973541 15.8553479,13.4446665 C15.742543,13.6368526 15.750899,13.8749961 15.8804156,14.0588263 L16.9123711,15.5127554 C16.9416168,15.554535 16.9374388,15.6172043 16.8998372,15.6548059 L15.6548059,16.8998372 C15.6255602,16.9290829 15.5963145,16.9332609 15.5754248,16.9332609 C15.550357,16.9332609 15.5294672,16.924905 15.5127554,16.9123711 L14.0630042,15.8804156 C13.8833521,15.750899 13.6410305,15.742543 13.4488445,15.8553479 C12.9015321,16.1812286 12.3124401,16.4235501 11.6982804,16.5823125 C11.4810266,16.6366259 11.3180863,16.8162781 11.2846626,17.0335318 L10.9880277,18.7882739 C10.9796717,18.8425874 10.9337142,18.880189 10.8794008,18.880189 L9.12048075,18.880189 C9.06616731,18.880189 9.02020978,18.8425874 9.01185386,18.7882739 L8.71939685,17.0335318 C8.68179524,16.8121001 8.5188549,16.6366259 8.30577908,16.5823125 C7.70833119,16.427728 7.13177308,16.1895845 6.59281659,15.8804156 C6.50507949,15.8302802 6.40480852,15.8052124 6.3087155,15.8052124 C6.19591065,15.8052124 6.07892785,15.8386361 5.98283483,15.9096613 L4.52054978,16.9499727 C4.49966,16.9625066 4.47877021,16.9708625 4.45788042,16.9708625 C4.44116859,16.9708625 4.40774493,16.9666845 4.37849923,16.9374388 L3.13346796,15.6924076 C3.09586635,15.6548059 3.09168839,15.5963145 3.12093409,15.550357 L4.14871158,14.1089617 C4.27822826,13.9251316 4.28658417,13.6828101 4.17377933,13.4906241 C3.84789866,12.9474896 3.59722122,12.3583976 3.43845884,11.7442379 C3.37996744,11.5311621 3.20449324,11.3682218 2.98723946,11.3306202 L1.21996353,11.0298072 C1.16565008,11.0214513 1.12804847,10.9754938 1.12804847,10.9211803 L1.12804847,9.16226032 C1.12804847,9.10794688 1.16565008,9.06198935 1.21996353,9.05363344 L2.96217171,8.76117643 C3.18360345,8.72357481 3.36325561,8.56063448 3.41756906,8.3433807 C3.57215348,7.72922098 3.81029704,7.13595104 4.13199975,6.58863864 C4.2448046,6.3964526 4.23227073,6.15830904 4.10275405,5.97865687 L3.06244269,4.51637182 C3.03319699,4.47459225 3.03737495,4.41192289 3.07497656,4.37432128 L4.32000783,3.12929001 C4.34925353,3.1000443 4.37849923,3.09586635 4.39938902,3.09586635 C4.42445676,3.09586635 4.44534655,3.10422226 4.46205838,3.11675613 L5.90345364,4.14453363 C6.08728376,4.2740503 6.32960529,4.28240622 6.52179132,4.16960137 C7.06492577,3.8437207 7.65401774,3.59304326 8.26817747,3.43428089 C8.48125329,3.37578949 8.64419362,3.20031528 8.68179524,2.9830615 L8.98260816,1.21578557 C8.99096408,1.16147213 9.03692161,1.12387051 9.09123505,1.12387051 L10.8501551,1.12387051 Z M10.0020297,5.68202191 C7.62059409,5.68202191 5.68619986,7.61641613 5.68619986,9.99785178 C5.68619986,12.3792874 7.62059409,14.3136817 10.0020297,14.3136817 C12.3834654,14.3136817 14.3178596,12.3792874 14.3178596,9.99785178 C14.3178596,7.61641613 12.3834654,5.68202191 10.0020297,5.68202191 Z M10.0020297,6.81007037 C11.7609498,6.81007037 13.1898111,8.23893176 13.1898111,9.99785178 C13.1898111,11.7567718 11.7609498,13.1856332 10.0020297,13.1856332 C8.24310972,13.1856332 6.81424833,11.7567718 6.81424833,9.99785178 C6.81424833,8.23893176 8.24310972,6.81007037 10.0020297,6.81007037 Z" id="path-1"></path>
    </defs>
    <g id="Desktop" stroke="none" stroke-width="1" fill="none" fill-rule="evenodd">
        <g id="0-–-Navigation" transform="translate(-210.000000, -530.000000)">
            <g id="Component/Navigation/Left-Bar-Expanded" transform="translate(180.000000, 0.000000)">
                <g id="Group" transform="translate(0.000000, 176.000000)">
                    <g id="Nav/Menu/List--Copy-6" transform="translate(0.000000, 336.000000)">
                        <g id="icon-dashboard" transform="translate(30.000000, 18.000000)">
                            <mask id="mask-2" fill="white">
                                <use xlink:href="#path-1"></use>
                            </mask>
                            <use id="Settings" fill="#BFC5D2" xlink:href="#path-1"></use>
                        </g>
                    </g>
                </g>
            </g>
        </g>
    </g>
</svg>