<?xml version="1.0" encoding="UTF-8"?>
<svg width="20px" height="16px" viewBox="0 0 20 16" version="1.1" xmlns="http://www.w3.org/2000/svg" xmlns:xlink="http://www.w3.org/1999/xlink">
    <title>Shape</title>
    <defs>
        <path d="M19.4278607,4.73191333 L16.60199,0.730884703 C16.2686567,0.256186391 15.8308458,5.68434189e-14 15.3781095,5.68434189e-14 L14.721393,5.68434189e-14 L9.69651741,5.68434189e-14 L9.07462687,5.68434189e-14 C8.57711443,5.68434189e-14 8.10447761,0.308930648 7.76616915,0.858977898 L5.37810945,4.73191333 C5.22885572,4.98056483 5.01492537,5.11619292 4.7960199,5.12372781 L2.65671642,5.12372781 C1.18905473,5.11619292 0,6.91703255 0,9.13229134 L0,10.7070842 C0,12.1989931 0.800995025,13.412111 1.79104478,13.412111 L2.05970149,13.412111 C2.41791045,15.3109043 3.72139303,16.4034639 4.97512438,15.8609515 C5.75621891,15.5218813 6.3681592,14.5950894 6.5920398,13.412111 L13.4278607,13.412111 C13.7860697,15.3109043 15.0895522,16.4034639 16.3432836,15.8609515 C17.1243781,15.5218813 17.7363184,14.5950894 17.960199,13.412111 L18.2039801,13.412111 C19.1890547,13.4196459 19.9950249,12.206528 20,10.714619 L20,6.71359042 C19.9950249,5.96010103 19.7860697,5.24428612 19.4278607,4.73191333 Z M15.3681592,1.50697877 C15.5771144,1.50697877 15.7761194,1.62753707 15.920398,1.8385141 L18.2338308,5.12372781 L15.5074627,5.12372781 L14.4029851,1.50697877 L15.3681592,1.50697877 Z M14.4179104,5.12372781 L11.6368159,5.12372781 L11.6368159,1.50697877 L13.3134328,1.50697877 L14.4179104,5.12372781 Z M4.31840796,14.5046706 C3.56716418,14.5046706 2.95522388,13.5778787 2.95522388,12.4401097 C2.95522388,11.3023408 3.56716418,10.3755488 4.31840796,10.3755488 C5.06965174,10.3755488 5.68159204,11.3023408 5.68159204,12.4401097 C5.68159204,13.5854136 5.06965174,14.5046706 4.31840796,14.5046706 Z M10.641791,11.8975974 L6.65174129,11.8975974 C6.46268657,9.94605987 5.26368159,8.60484877 3.97512438,8.89117474 C2.95024876,9.12475645 2.14427861,10.3454092 1.99004975,11.8975974 L1.79104478,11.8975974 C1.35323383,11.9051323 0.995024876,11.3701548 0.990049751,10.7070842 L0.990049751,9.13229134 C0.990049751,7.74587087 1.73631841,6.62317169 2.65174129,6.62317169 L4.7960199,6.62317169 C4.83084577,6.62317169 4.86069652,6.62317169 4.89552239,6.6156368 C4.91542289,6.6156368 4.93034826,6.62317169 4.95024876,6.62317169 L10.641791,6.62317169 L10.641791,11.8975974 Z M10.641791,5.12372781 L6.50248756,5.12372781 L8.49253731,1.89879325 C8.64179104,1.65014175 8.85572139,1.51451366 9.07462687,1.50697877 L10.641791,1.50697877 L10.641791,5.12372781 Z M13.7263682,6.03961325e-14 L10.6915423,6.03961325e-14 L13.7263682,6.03961325e-14 Z M15.6915423,14.5046706 C14.9402985,14.5046706 14.3283582,13.5778787 14.3283582,12.4401097 C14.3283582,11.3023408 14.9402985,10.3755488 15.6915423,10.3755488 C16.4427861,10.3755488 17.0547264,11.3023408 17.0547264,12.4401097 C17.0547264,13.5854136 16.4427861,14.5046706 15.6915423,14.5046706 Z M19.0049751,10.7070842 C19,11.3701548 18.641791,11.9051323 18.2089552,11.9051323 L18.0248756,11.9051323 C17.8358209,9.95359477 16.6368159,8.60484877 15.3482587,8.89870963 C14.3233831,9.13229134 13.5174129,10.3529441 13.3631841,11.9051323 L11.6368159,11.9051323 L11.6368159,6.63070658 L18.9154229,6.63070658 C18.9452736,6.63070658 18.9701493,6.62317169 19,6.6156368 C19,6.65331126 19.0049751,6.68345084 19.0049751,6.72112531 L19.0049751,10.7070842 Z" id="path-1"></path>
    </defs>
    <g id="Desktop" stroke="none" stroke-width="1" fill="none" fill-rule="evenodd">
        <g id="0-–-Navigation" transform="translate(-210.000000, -308.000000)">
            <g id="Component/Navigation/Left-Bar-Expanded" transform="translate(180.000000, 0.000000)">
                <g id="Group" transform="translate(0.000000, 176.000000)">
                    <g id="Nav/Menu/List--Copy-2" transform="translate(0.000000, 112.000000)">
                        <g id="icon-dashboard" transform="translate(30.000000, 20.000000)">
                            <mask id="mask-2" fill="white">
                                <use xlink:href="#path-1"></use>
                            </mask>
                            <use id="Shape" fill="#BFC5D2" xlink:href="#path-1"></use>
                        </g>
                    </g>
                </g>
            </g>
        </g>
    </g>
</svg>